<?xml version="1.0" encoding="utf-8"?>
<svg width="294px" height="210px" viewBox="0 0 294 210" version="1.1" xmlns="http://www.w3.org/2000/svg" xmlns:xlink="http://www.w3.org/1999/xlink">
    <g id="Page-1" stroke="none" stroke-width="1" fill="none" fill-rule="evenodd">
        <g id="Vector-Smart-Object" fill-rule="nonzero">
            <path d="M137,36.8 C136.7,38.1 135.3,38.9 134,38.6 C132.7,38.3 131.9,36.9 132.2,35.6 C132.5,34.3 133.9,33.5 135.2,33.8 C136.6,34.1 137.4,35.4 137,36.8 M124,67.1 C121.6,66.1 120.2,63.2 120.1,60.2 C119.9,53.9 123.9,47.2 126.9,44.7 C127.1,44.8 132.5,51.8 132.8,57.8 C133.1,63.6 129.4,69.3 124,67.1 M199.5,98.7 C190.7,96.2 175.5,88.2 170.7,63.6 C168.8,53.7 165.1,44.5 154.3,33.6 C154.3,33.6 179.7,38.3 181.6,24.2 C180.2,22.4 178,24.5 174.8,25.1 C172,25.6 167.1,25.3 167.2,22.4 C167.2,20 174.4,18.9 172.3,15.4 C170.9,13.1 164.4,17 163.1,17.2 C161.3,17.5 159.1,17.5 158.7,16.3 C158.1,14.7 160,12.8 160.9,12.1 C162.2,10.9 164.2,10.7 164.1,8.8 C164,7.2 162,6.4 159.5,6.9 C155.6,7.7 150.8,12.6 147,13.6 C145.7,13.9 143.7,13.8 143.3,12.5 C142.8,11.1 143.7,9.3 144.2,8.3 C145.7,5.7 150,3.1 147.2,0.7 C146.9,0.6 146.6,0.5 146.3,0.4 C141.7,0.8 138.3,5.1 136.2,8.8 C132.8,14.8 126.8,12.6 126.3,9.6 C125.9,6.8 126.6,3.5 123.5,3.5 C119.9,3.6 117.8,10.5 117.9,14.1 C118,21.3 119.7,25.4 123.6,30.9 C123.6,30.9 116.8,31.9 112.4,36.1 L123.7,41.6 C107.3,47.9 106.5,62 117,63.2 C117,63.2 100.5,83.4 93.9,107.4 C93.6,108.3 94.8,109 95.5,108.3 C105.1,98.6 118.4,92.5 133.1,92.5 C143.7,92.5 151.8,96.3 161.8,99.7 C171.3,102.9 183,105.7 199.7,101.5 C201,101.4 201,99.2 199.5,98.7" id="Shape" fill="#E30613"></path>
            <path d="M35.5,191.6 C34.7,192.2 33.9,192.8 32.6,193.2 C31.3,193.6 29.9,193.8 28.3,193.8 C26.7,193.8 25.2,193.5 23.9,193 C22.5,192.5 21.4,191.7 20.4,190.8 C19.4,189.9 18.6,188.7 18,187.5 C17.4,186.2 17.1,184.9 17.1,183.4 C17.1,182 17.4,180.6 17.9,179.3 C18.5,178 19.2,176.9 20.2,176 C21.2,175.1 22.3,174.3 23.6,173.8 C24.9,173.3 26.3,173 27.9,173 C29.4,173 30.7,173.2 31.9,173.6 C33.1,174 34.2,174.3 35,174.8 C35.7,175.2 36.3,175.7 37.1,176.4 L46.2,163.3 C44.8,162.2 42.7,160.9 40.8,160.1 C39.2,159.4 37.3,158.8 35,158.2 C32.8,157.7 30.2,157.4 27.3,157.4 C23.7,157.4 20.3,158 17,159.2 C13.8,160.4 11,162.2 8.6,164.5 C6.2,166.8 4.3,169.5 2.9,172.7 C1.5,175.9 0.8,179.5 0.8,183.5 C0.8,187.4 1.5,190.9 2.8,194.1 C4.2,197.3 6,200.1 8.5,202.3 C10.9,204.6 13.8,206.4 17.1,207.6 C20.4,208.9 24,209.5 28,209.5 C30.9,209.5 33.5,209.2 35.8,208.6 C38.1,208 40.2,207.2 41.8,206.4 C43.4,205.7 45.4,204 46.8,202.9 L37.3,189.9 C36.5,190.7 36.5,190.9 35.5,191.6" id="Shape" fill="#1C3A69"></path>
            <polygon id="Shape" fill="#1C3A69" points="68.5 188.8 83.4 188.8 83.4 177.6 68.5 177.6 68.5 171.5 84.8 171.5 84.8 158.4 52 158.4 52 208.2 85.3 208.2 85.3 195.2 68.5 195.2"></polygon>
            <path d="M119.2,191.6 C117.1,193.4 114,194.1 110.1,194.1 L110.1,172.7 C114,172.7 117.2,173.4 119.3,175.2 C121.4,176.9 123.1,179.8 123.1,183.4 C123.1,187 121.4,189.8 119.2,191.6 M131.2,164.7 C128.6,162.6 125.4,161 121.5,160 C117.7,159 113.3,158.4 108.5,158.4 L93.5,158.4 L93.5,208.2 L108.5,208.2 C113.4,208.2 117.7,207.7 121.5,206.6 C125.3,205.5 128.5,204 131.2,201.9 C133.8,199.8 135.8,197.2 137.2,194.1 C138.6,191 139.3,187.4 139.3,183.3 C139.3,179.2 138.6,175.6 137.2,172.5 C135.9,169.4 133.9,166.8 131.2,164.7" id="Shape" fill="#1C3A69"></path>
            <path d="M169.6,181.3 C168.2,182.1 166.6,182.4 164.7,182.4 L162.1,182.4 L162.1,171.6 L164.7,171.6 C166.6,171.6 168.3,172 169.7,172.8 C171.1,173.6 171.7,175.1 171.7,177.1 C171.7,179.1 171,180.5 169.6,181.3 M184.7,184.6 C185.6,182.9 186.3,179.7 186.3,177.2 C186.3,174.1 185.7,171.3 184.6,168.9 C183.4,166.5 181.9,164.8 179.8,163.2 C177.7,161.6 175.9,160.6 173.1,159.7 C170.3,158.9 167.3,158.4 164,158.4 L145.7,158.4 L145.7,208.2 L162.1,208.2 L162.1,193.8 L170.4,208.2 L189.6,208.2 L178.9,191 C181.5,189.2 183.8,186.3 184.7,184.6" id="Shape" fill="#1C3A69"></path>
            <path d="M228.9,187.4 C228.3,188.7 227.6,189.8 226.6,190.7 C225.6,191.6 224.5,192.4 223.2,192.9 C221.9,193.4 220.5,193.7 219,193.7 C217.5,193.7 216.1,193.4 214.8,192.9 C213.5,192.4 212.3,191.6 211.4,190.7 C210.4,189.8 209.6,188.6 209.1,187.4 C208.5,186.1 208.2,184.8 208.2,183.3 C208.2,181.9 208.5,180.5 209.1,179.2 C209.7,177.9 210.4,176.8 211.4,175.9 C212.4,175 213.5,174.2 214.8,173.7 C216.1,173.2 217.5,172.9 219,172.9 C220.5,172.9 221.9,173.2 223.2,173.7 C224.5,174.2 225.7,175 226.6,175.9 C227.6,176.8 228.4,178 228.9,179.2 C229.5,180.5 229.8,181.8 229.8,183.3 C229.8,184.8 229.5,186.2 228.9,187.4 M238.1,164.9 C235.6,162.5 232.8,160.7 229.5,159.3 C226.2,157.9 222.7,157.2 219,157.2 C215.3,157.2 211.8,157.9 208.5,159.3 C205.2,160.7 202.3,162.5 199.9,164.9 C197.4,167.3 195.5,170 194.1,173.2 C192.7,176.4 192,179.8 192,183.4 C192,187 192.7,190.4 194.1,193.6 C195.5,196.8 197.5,199.6 199.9,201.9 C202.4,204.3 205.2,206.1 208.5,207.5 C211.8,208.9 215.3,209.6 219,209.6 C222.7,209.6 226.2,208.9 229.5,207.5 C232.8,206.1 235.7,204.3 238.1,201.9 C240.6,199.5 242.5,196.8 243.9,193.6 C245.3,190.4 246,187 246,183.4 C246,179.8 245.3,176.4 243.9,173.2 C242.5,170 240.6,167.3 238.1,164.9" id="Shape" fill="#1C3A69"></path>
            <path d="M272.6,196.5 L268.8,196.5 L268.8,187.3 L272.6,187.3 C276.7,187.3 278.8,188.8 278.8,191.9 C278.8,195 276.7,196.5 272.6,196.5 L272.6,196.5 Z M268.8,170 L272.5,170 C275.2,170 276.6,171.2 276.6,173.5 C276.6,175.8 275.2,177.1 272.5,177.1 L268.8,177.1 L268.8,170 Z M292.4,187.8 C291.8,186.3 290.9,184.9 290,184 C288.9,183 287.3,181.5 285.9,181 C288.3,180 290,177.1 290.4,176 C290.8,174.9 291,173.4 291,171.8 C291,169.6 290.6,167.6 289.7,165.9 C288.8,164.2 287.6,162.8 286.1,161.7 C284.5,160.6 282.7,159.8 280.5,159.3 C278.3,158.7 275.9,158.4 273.3,158.4 L252.6,158.4 L252.6,208.2 L274.7,208.2 C277.7,208.2 280.3,207.8 282.7,207.1 C285.1,206.4 286.9,205.4 288.5,204 C290.2,202.6 291.1,201.5 292,199.6 C292.9,197.7 293.3,195.5 293.3,193.1 C293.4,191.1 293,189.3 292.4,187.8 L292.4,187.8 Z" id="Shape" fill="#1C3A69"></path>
            <path d="M26.4,143.2 C25.9,143.7 22.7,147.5 15.2,147.5 C7.7,147.5 1.8,142.1 1.8,133.9 C1.8,125.7 7.7,120.4 15.2,120.4 C21.9,120.4 24.8,123.9 25.8,125 L23.3,127.3 C21.7,125.5 19.3,123.6 15.2,123.6 C9.8,123.6 5.6,127.5 5.6,134 C5.6,140.5 9.9,144.4 15.4,144.4 C20.8,144.4 22.8,142 22.8,142 L22.8,136 L15.7,136 L15.7,133 L26.4,133 L26.4,143.2 L26.4,143.2 Z" id="Shape" fill="#1C3A69"></path>
            <path d="M86.6,124.6 C85.4,123.7 84,123.6 82.2,123.6 L79.5,123.6 L79.5,132.5 L82.2,132.5 C84,132.5 85.4,132.4 86.6,131.6 C87.8,130.7 88.3,129.7 88.3,128.1 C88.2,126.6 87.8,125.5 86.6,124.6 L86.6,124.6 Z M93.6,147 L89.1,147 L82.2,135.7 L79.4,135.7 L79.4,147 L75.7,147 L75.7,120.7 L83.1,120.7 C85.7,120.7 87.9,121.3 89.4,122.5 C91,123.8 92,125.7 92,128.1 C92,132.7 88.8,134.8 86,135.3 L93.6,147 Z" id="Shape" fill="#1C3A69"></path>
            <path d="M160.1,136.2 C160.1,139.5 159.8,142.1 158,144.2 C156.2,146.3 153.6,147.4 150.1,147.4 C146.6,147.4 144,146.3 142.2,144.2 C140.4,142.1 140.1,139.5 140.1,136.2 L140.1,120.7 L143.8,120.7 L143.8,135.9 C143.8,138.1 143.8,140.2 145,141.8 C146.1,143.2 147.8,144.1 150.1,144.1 C152.4,144.1 154.1,143.2 155.2,141.8 C156.4,140.2 156.4,138.1 156.4,135.9 L156.4,120.7 L160.1,120.7 L160.1,136.2 Z" id="Shape" fill="#1C3A69"></path>
            <path d="M220.5,124.7 C219.5,124 218.4,123.7 216.7,123.7 L213.3,123.7 L213.3,132.7 L216.7,132.7 C218.4,132.7 219.6,132.4 220.5,131.7 C221.4,131 222.1,129.8 222.1,128.2 C222.1,126.6 221.4,125.4 220.5,124.7 M223.4,133.8 C221.8,135.2 219.6,135.7 217,135.7 L213.3,135.7 L213.3,147 L209.6,147 L209.6,120.7 L217,120.7 C219.6,120.7 221.8,121.2 223.4,122.6 C225,124 226,125.7 226,128.2 C225.9,130.7 225,132.5 223.4,133.8" id="Shape" fill="#1C3A69"></path>
            <path d="M285.9,137 L281.3,125.2 L276.7,137 L285.9,137 Z M293.7,147 L289.6,147 L286.9,140.1 L275.6,140.1 L272.9,147 L269,147 L279.7,120.6 L282.9,120.6 L293.7,147 Z" id="Shape" fill="#1C3A69"></path>
        </g>
    </g>
</svg>