<?xml version="1.0" encoding="utf-8"?>
<!-- Generator: Adobe Illustrator 15.1.0, SVG Export Plug-In . SVG Version: 6.00 Build 0)  -->
<!DOCTYPE svg PUBLIC "-//W3C//DTD SVG 1.1//EN" "http://www.w3.org/Graphics/SVG/1.1/DTD/svg11.dtd">
<svg version="1.1" id="Layer_1" xmlns="http://www.w3.org/2000/svg" xmlns:xlink="http://www.w3.org/1999/xlink" x="0px" y="0px"
	 width="285.965px" height="65.525px" viewBox="0 0 285.965 65.525" enable-background="new 0 0 285.965 65.525"
	 xml:space="preserve">
<g>
	<polygon fill="#EE4036" points="40.079,0 1.369,0 0,7.805 38.712,7.805 	"/>
	<polygon fill="#EE4036" points="19.803,65.525 283.627,65.525 284.996,57.726 21.165,57.726 	"/>
	<polygon points="22.354,50.893 22.354,50.893 25.854,30.907 	"/>
	<polygon points="37.629,13.89 28.827,13.89 25.854,30.907 22.354,50.893 31.074,50.893 	"/>
	<path d="M44.839,50.835l4.211-23.567c0.865-4.874,3.786-6.558,7.212-6.558c3.638,0,5.35,2.031,4.487,6.903l-4.079,23.222h8.743
		l4.1-23.273c1.978-11.541-3.497-14.859-9.719-14.724c-3.193,0-6.742,1.21-9.663,4.081l0.265-3.876h-7.61l-6.664,37.792H44.839z"/>
	<path d="M78.428,50.893l4.614-26.36h8.197l1.408-8.055h-8.119l0.288-2.042c0.782-4.184,4.466-6.763,10.2-5.82l1.359-7.711
		c-11.351-1.527-18.769,4.822-20.263,13.43l-6.485,36.559H78.428z"/>
	<path d="M96.051,13.043l-6.75,37.85h8.797l3.853-21.596c0.979-5.661,5.861-7.906,11.46-7.114l1.583-9.291
		c-4.526-0.797-9.174,1.497-11.216,4.126l0.333-3.975H96.051z"/>
	<path d="M123.336,26.028c0.613-4.029,2.281-5.37,6.152-5.37c4.583,0,5.23,2.873,4.176,8.451
		c-12.861-0.898-20.905,2.638-22.433,11.536c-1.266,7.113,2.775,10.696,8.992,10.696c4.258,0,8.124-1.894,10.762-4.877l0.057,4.37
		h7.244l4.084-23.222c1.738-9.803-1.715-14.722-11.56-14.722c-9.09,0-14.752,3.734-15.879,13.137H123.336z M124.256,43.28
		c-3.021,0-5.009-0.842-4.573-3.295c0.517-3.021,4.032-5.107,12.856-4.214C131.438,39.596,129.424,43.28,124.256,43.28"/>
	<path d="M156.055,51.523c9.898,0,15.342-4.156,17.141-14.276h-8.277c-0.861,4.484-2.908,6.436-7.496,6.436
		c-4.662,0-5.35-2.689-4.518-7.329l1.426-8.239c0.84-4.718,2.693-7.404,7.574-7.404c4.379,0,5.484,2.133,4.791,6.456h8.271
		c1.791-10.195-1.949-14.225-11.854-14.225c-9.984,0-15.84,4.976-17.641,15.173l-1.461,8.452
		C142.121,46.917,146.064,51.523,156.055,51.523"/>
	<path d="M188.205,51.022c9.904,0,15.377-3.814,16.766-11.77h-8.693c-0.461,2.632-2.412,4.082-6.623,4.082
		c-3.588,0-5.764-1.104-4.643-7.216l0.141-0.948h20.482l1.334-7.506c1.795-10.195-2.074-14.724-12.064-14.724
		c-9.896,0-15.586,5.271-17.285,14.724l-1.479,8.559C174.354,46.413,178.303,51.022,188.205,51.022 M193.861,20.552
		c4.975,0,5.408,2.626,4.563,7.404h-11.986C187.256,23.347,188.633,20.552,193.861,20.552"/>
	<path d="M215.223,50.893l3.771-21.596c1.049-5.661,5.936-7.906,11.451-7.114l1.67-9.291c-4.525-0.797-9.256,1.497-11.211,4.126
		l0.256-3.975h-8.07l-6.664,37.85H215.223z"/>
	<path d="M243.271,50.835l1.361-7.656c-5.982,0.74-6.176-2.141-5.416-6.272l2.787-15.96h6.459l1.391-8.005h-6.449l1.299-7.399
		l-8.934,0.943l-5.373,30.525C228.457,48.209,231.955,52.082,243.271,50.835"/>
	<polygon points="256.217,50.846 257.461,50.846 260.043,36.257 265.762,36.257 265.934,35.127 253.311,35.127 253.064,36.257 
		258.797,36.257 	"/>
	<path d="M276.973,46.829c1.029-5.958-8.369-3.591-7.607-7.686c0.352-1.865,1.883-3.065,4.564-3.065
		c1.668,0,2.986,0.449,3.916,0.977l0.174-1.268c-0.998-0.515-2.33-0.938-4.012-0.938c-3.709,0-5.518,2.107-5.912,4.295
		c-0.941,5.399,8.5,2.729,7.611,7.686c-0.379,2.107-2.385,3.05-4.887,3.05c-2.117,0-3.537-0.535-4.486-1.205l-0.266,1.31
		c1.135,0.639,2.611,1.122,4.65,1.122C274.359,51.105,276.541,49.344,276.973,46.829"/>
	<polygon points="285.965,35.127 284.816,35.127 281.982,50.846 283.201,50.846 	"/>
</g>
</svg>
