<svg width="800" height="600" xmlns="http://www.w3.org/2000/svg">
 <!-- Created with Method Draw - http://github.com/duopixel/Method-Draw/ -->

 <g>
  <title>background</title>
  <rect fill="none" id="canvas_background" height="602" width="802" y="-1" x="-1"/>
  <g display="none" overflow="visible" y="0" x="0" height="100%" width="100%" id="canvasGrid">
   <rect fill="url(#gridpattern)" stroke-width="0" y="0" x="0" height="100%" width="100%"/>
  </g>
 </g>
 <g>
  <title>Layer 1</title>
  <g id="svg_22">
   <g transform="matrix(0.49270470179707004,0,0,0.49270470179707004,0,0) " id="svg_5">
    <path fill="#ffffff" id="svg_6" d="m951.4628,542.93046l-14.274,-14.273c-1.902,-1.906 -4.093,-2.856 -6.57,-2.856c-2.471,0 -4.661,0.95 -6.563,2.856l-112.209,112.203l-112.204,-112.2c-1.903,-1.906 -4.093,-2.856 -6.567,-2.856c-2.475,0 -4.665,0.95 -6.567,2.856l-14.272,14.274c-1.906,1.902 -2.856,4.092 -2.856,6.567c0,2.473 0.953,4.663 2.856,6.565l133.043,133.046c1.902,1.903 4.093,2.854 6.567,2.854s4.661,-0.951 6.562,-2.854l133.054,-133.046c1.902,-1.903 2.847,-4.093 2.847,-6.565c0,-2.475 -0.945,-4.665 -2.847,-6.571z"/>
   </g>
   <g transform="matrix(0.49270470179707004,0,0,0.49270470179707004,0,0) " id="svg_7"/>
   <g transform="matrix(0.49270470179707004,0,0,0.49270470179707004,0,0) " id="svg_8"/>
   <g transform="matrix(0.49270470179707004,0,0,0.49270470179707004,0,0) " id="svg_9"/>
   <g transform="matrix(0.49270470179707004,0,0,0.49270470179707004,0,0) " id="svg_10"/>
   <g transform="matrix(0.49270470179707004,0,0,0.49270470179707004,0,0) " id="svg_11"/>
   <g transform="matrix(0.49270470179707004,0,0,0.49270470179707004,0,0) " id="svg_12"/>
   <g transform="matrix(0.49270470179707004,0,0,0.49270470179707004,0,0) " id="svg_13"/>
   <g transform="matrix(0.49270470179707004,0,0,0.49270470179707004,0,0) " id="svg_14"/>
   <g transform="matrix(0.49270470179707004,0,0,0.49270470179707004,0,0) " id="svg_15"/>
   <g transform="matrix(0.49270470179707004,0,0,0.49270470179707004,0,0) " id="svg_16"/>
   <g transform="matrix(0.49270470179707004,0,0,0.49270470179707004,0,0) " id="svg_17"/>
   <g transform="matrix(0.49270470179707004,0,0,0.49270470179707004,0,0) " id="svg_18"/>
   <g transform="matrix(0.49270470179707004,0,0,0.49270470179707004,0,0) " id="svg_19"/>
   <g transform="matrix(0.49270470179707004,0,0,0.49270470179707004,0,0) " id="svg_20"/>
   <g transform="matrix(0.49270470179707004,0,0,0.49270470179707004,0,0) " id="svg_21"/>
  </g>
 </g>
</svg>